HIERARCHY
ROOT root
{
	OFFSET	0	13.1	24.9
	CHANNELS 6  Xposition Yposition Zposition Xrotation Yrotation Zrotation
	JOINT spine_1
	{
		OFFSET	0	9.99999	0
		CHANNELS 3  Xrotation Yrotation Zrotation
		JOINT spine_2
		{
			OFFSET	0	112	-10
			CHANNELS 3  Xrotation Yrotation Zrotation
			JOINT spine_3
			{
				OFFSET	0	206.5	19.3
				CHANNELS 3  Xrotation Yrotation Zrotation
				JOINT spine_4
				{
					OFFSET	0	110.4	14.6
					CHANNELS 3  Xrotation Yrotation Zrotation
					JOINT neck_1
					{
						OFFSET	0	71.8	-50.3
						CHANNELS 3  Xrotation Yrotation Zrotation
						JOINT neck_2
						{
							OFFSET	0	86.2	-25.8
							CHANNELS 3  Xrotation Yrotation Zrotation
							JOINT head_ee
							{
								OFFSET	0	179.8	-8.7
								CHANNELS 3  Xrotation Yrotation Zrotation
								End Site
								{
									OFFSET	1	0	0
								}
							}
						}
					}
					JOINT left_clavicle
					{
						OFFSET	-43.2	22.4	-70.8
						CHANNELS 3  Xrotation Yrotation Zrotation
						JOINT left_shoulder
						{
							OFFSET	-93.9	-5.79999	48.7
							CHANNELS 3  Xrotation Yrotation Zrotation
							JOINT left_elbow
							{
								OFFSET	-291.4	-30.8	15.2
								CHANNELS 3  Xrotation Yrotation Zrotation
								JOINT left_lowarm_twist
								{
									OFFSET	-110.7	-3.89999	13.6
									CHANNELS 3  Xrotation Yrotation Zrotation
									JOINT left_hand
									{
										OFFSET	-110.7	-3.89999	13.6
										CHANNELS 3  Xrotation Yrotation Zrotation
										JOINT left_ee
										{
											OFFSET	-80.8	-5.10001	12.1
											CHANNELS 3  Xrotation Yrotation Zrotation
											End Site
											{
												OFFSET	1	0	0
											}
										}
									}
								}
							}
						}
					}
					JOINT right_clavicle
					{
						OFFSET	43.2	22.4	-70.8
						CHANNELS 3  Xrotation Yrotation Zrotation
						JOINT right_shoulder
						{
							OFFSET	93.9	-5.79999	48.7
							CHANNELS 3  Xrotation Yrotation Zrotation
							JOINT right_elbow
							{
								OFFSET	291.4	-30.8	15.2
								CHANNELS 3  Xrotation Yrotation Zrotation
								JOINT right_lowarm_twist
								{
									OFFSET	110.7	-3.89999	13.6
									CHANNELS 3  Xrotation Yrotation Zrotation
									JOINT right_hand
									{
										OFFSET	110.7	-3.89999	13.6
										CHANNELS 3  Xrotation Yrotation Zrotation
										JOINT right_ee
										{
											OFFSET	80.8	-5.10001	12.1
											CHANNELS 3  Xrotation Yrotation Zrotation
											End Site
											{
												OFFSET	1	0	0
											}
										}
									}
								}
							}
						}
					}
				}
			}
		}
	}
	JOINT left_hip
	{
		OFFSET	-82.8	-127.5	0.300001
		CHANNELS 3  Xrotation Yrotation Zrotation
		JOINT left_knee
		{
			OFFSET	-28.2	-396.7	2.2
			CHANNELS 3  Xrotation Yrotation Zrotation
			JOINT left_ankle
			{
				OFFSET	-11.7	-411.3	35.4
				CHANNELS 3  Xrotation Yrotation Zrotation
				JOINT left_toes
				{
					OFFSET	0	-60	-88.6
					CHANNELS 3  Xrotation Yrotation Zrotation
					JOINT left_foot_ee
					{
						OFFSET	-22.5	-16.5	-42.2
						CHANNELS 3  Xrotation Yrotation Zrotation
						End Site
						{
							OFFSET	1	0	0
						}
					}
				}
			}
		}
	}
	JOINT right_hip
	{
		OFFSET	82.8	-127.5	0.300001
		CHANNELS 3  Xrotation Yrotation Zrotation
		JOINT right_knee
		{
			OFFSET	28.2	-396.7	2.2
			CHANNELS 3  Xrotation Yrotation Zrotation
			JOINT right_ankle
			{
				OFFSET	11.7	-411.3	35.4
				CHANNELS 3  Xrotation Yrotation Zrotation
				JOINT right_toes
				{
					OFFSET	0	-60	-88.6
					CHANNELS 3  Xrotation Yrotation Zrotation
					JOINT right_foot_ee
					{
						OFFSET	22.5	-16.5	-42.2
						CHANNELS 3  Xrotation Yrotation Zrotation
						End Site
						{
							OFFSET	1	0	0
						}
					}
				}
			}
		}
	}
}
MOTION
Frames: 5
Frame Time: 0.02
1618.51 719.834 -578.984 149.206 -74.1908 149.046 -3.51409 -0.083009 1.59984 -3.51269 -0.18463 1.59132 -3.51631 -0.607192 1.4825 -3.51919 -0.36547 1.55976 -8.9399 2.58202 -3.04831 -8.91963 6.9496 -2.40005 -0.0 0.0 -0.0 1.24884 3.20926 2.71373 -13.3024 -25.6038 74.5209 0.237167 -6.70086 0.0138845 -77.4332 -7.49539 5.30694 1.07909 7.83685 10.3135 -0.0 0.0 -0.0 6.5859 9.88057 -12.5181 16.2986 21.3457 -67.7493 3.41383 59.3888 -1.94716 54.5199 1.31106 6.58007 -5.21373 -25.641 19.5132 0.0 0.0 0.0 12.8545 13.501 -9.02163 -35.514 -0.206308 5.36013 32.0661 11.6167 -4.12521 -30.5915 0.0 0.0 -0.0 0.0 -0.0 5.78585 23.8571 -9.25319 -8.73019 -0.259804 -1.31334 39.5134 6.7261 4.91766 30.79 -0.0 -0.0 0.0 0.0 0.0 
1624.93 718.627 -577.44 151.287 -75.2692 151.538 -3.37437 0.060713 1.22225 -3.37354 -0.017179 1.22363 -3.37288 -0.34372 1.1745 -3.37477 -0.15393 1.21404 -9.30561 3.17091 -3.54878 -9.28206 8.38818 -2.72777 -0.0 0.0 -0.0 1.1019 3.46981 2.46481 -12.7788 -26.304 75.5085 0.237981 -6.72365 0.0139796 -77.9293 -7.5586 5.30283 1.47564 4.86558 11.8212 -0.0 0.0 -0.0 6.24697 9.08068 -11.8421 15.6748 20.8159 -67.2198 4.17939 64.1996 -2.62241 54.346 1.29721 6.56261 -4.94408 -23.8706 19.1702 0.0 0.0 0.0 13.4903 13.6938 -9.35687 -32.0534 -0.0400455 4.85531 30.3479 12.7625 -3.95168 -29.2898 0.0 0.0 -0.0 0.0 -0.0 5.66096 23.9156 -9.53606 -3.41879 -0.125588 -0.509569 31.7622 6.43086 4.16976 30.0495 -0.0 -0.0 0.0 0.0 0.0 
1632.54 722.353 -579.546 156.781 -75.5286 157.09 -3.04347 0.17314 1.10502 -3.0428 0.102479 1.11379 -3.03989 -0.192621 1.10179 -3.04159 -0.016208 1.11838 -8.76247 2.95714 -3.47022 -8.73486 7.9497 -2.74193 -0.0 0.0 -0.0 1.23918 3.96171 2.76681 -13.1735 -26.7354 75.5377 0.248161 -7.00846 0.0151966 -78.2053 -7.59374 5.30031 1.77567 2.78296 13.0477 -0.0 0.0 -0.0 5.26582 8.87185 -9.80627 14.4327 21.299 -67.5732 4.72896 66.8605 -3.12276 54.266 1.29086 6.55457 -4.83155 -22.4912 19.4553 0.0 0.0 0.0 13.2446 14.0362 -8.84679 -29.6729 0.0564578 4.50277 28.1687 12.9287 -3.71361 -28.6842 0.0 0.0 -0.0 0.0 -0.0 5.40881 24.0646 -9.5881 -0.414966 -0.0168645 -0.0614477 26.5543 5.82683 3.59111 29.4834 -0.0 -0.0 0.0 0.0 0.0 
1639.13 719.348 -585.26 158.986 -75.7855 159.691 -3.00113 0.0304926 0.741756 -3.00083 -0.0167677 0.742193 -3.0007 -0.209959 0.712075 -3.00139 -0.0948687 0.736296 -8.09602 3.01917 -3.53213 -8.06201 8.12828 -2.83985 -0.0 0.0 -0.0 1.04117 3.73185 2.37752 -11.7921 -27.0878 77.0234 0.258667 -7.30203 0.0165052 -78.0989 -7.58019 5.3013 2.31875 -0.416202 15.5241 -0.0 0.0 -0.0 4.3955 9.90867 -7.93286 13.2249 21.2083 -67.2541 5.44972 69.6467 -3.79243 54.3609 1.29839 6.5641 -4.50822 -21.0482 18.4274 0.0 0.0 0.0 12.5884 13.6947 -8.22372 -27.4733 0.13252 4.17379 26.6928 11.9271 -3.54028 -27.6405 0.0 0.0 -0.0 0.0 -0.0 5.17481 24.4307 -9.21241 0.810447 0.0342203 0.119658 22.8636 6.31318 3.16216 29.1968 -0.0 -0.0 0.0 0.0 0.0 
1654.89 720.176 -583.771 158.706 -77.2028 159.505 -2.87488 -0.0205633 0.586219 -2.87469 -0.0578235 0.583722 -2.87509 -0.207013 0.548837 -2.87549 -0.117738 0.574642 -7.58411 3.55266 -3.5746 -7.54501 9.16579 -2.80914 -0.0 0.0 -0.0 0.940218 4.03354 2.22032 -11.566 -27.4283 76.695 0.271629 -7.66368 0.0181932 -79.1171 -7.70972 5.29076 2.63496 -1.74724 17.1965 -0.0 0.0 -0.0 2.89732 8.13947 -4.97057 12.4505 22.0665 -70.109 5.51886 69.8804 -3.85729 55.2176 1.36714 6.64968 -4.30417 -19.1758 18.3746 0.0 0.0 0.0 11.6778 14.6901 -7.95243 -25.0765 0.200949 3.81235 24.8235 8.98994 -3.31293 -27.0947 0.0 0.0 -0.0 0.0 -0.0 5.28477 25.3282 -8.74578 0.0232982 0.00095985 0.00344648 20.8597 5.6303 2.90729 30.2675 -0.0 -0.0 0.0 0.0 0.0 
